<svg xmlns="http://www.w3.org/2000/svg" viewBox="0 0 314.76 88"><defs><style>.cls-1{fill:#f15a24;}.cls-2{fill:#333;}</style></defs><g id="SOFTWARE"><path class="cls-1" d="M158.41,12.51A6.56,6.56,0,0,1,156,11.26l.51-.7a6.22,6.22,0,0,0,2.21,1.17,9.33,9.33,0,0,0,2.91.45,6.53,6.53,0,0,0,3.35-.7,2.08,2.08,0,0,0,1.13-1.81,1.73,1.73,0,0,0-.6-1.38A4.09,4.09,0,0,0,164,7.51a21.11,21.11,0,0,0-2.4-.57,26.57,26.57,0,0,1-2.74-.68,4.6,4.6,0,0,1-1.75-1,2.44,2.44,0,0,1-.72-1.84,2.75,2.75,0,0,1,.6-1.72A4,4,0,0,1,158.85.46,8.75,8.75,0,0,1,161.92,0a10.25,10.25,0,0,1,2.53.31,8.61,8.61,0,0,1,2.15.84l-.42.75a8.1,8.1,0,0,0-2.06-.8,9.34,9.34,0,0,0-2.2-.28,6,6,0,0,0-3.26.72,2.12,2.12,0,0,0-1.11,1.85,1.71,1.71,0,0,0,.6,1.37,4.22,4.22,0,0,0,1.49.79c.59.18,1.39.38,2.41.58s2,.46,2.73.68a4.54,4.54,0,0,1,1.74,1,2.34,2.34,0,0,1,.72,1.8,2.7,2.7,0,0,1-.61,1.71,4.1,4.1,0,0,1-1.87,1.22,9.11,9.11,0,0,1-3.11.46A10.46,10.46,0,0,1,158.41,12.51Z" transform="translate(-0.24 0)"/><path class="cls-1" d="M173.53,12.15a7.17,7.17,0,0,1-2.89-2.34,5.57,5.57,0,0,1-1-3.31,5.57,5.57,0,0,1,1-3.31A7.17,7.17,0,0,1,173.53.85,9.72,9.72,0,0,1,177.66,0a9.82,9.82,0,0,1,4.12.84,7,7,0,0,1,2.89,2.33,5.57,5.57,0,0,1,1.06,3.33,5.57,5.57,0,0,1-1.06,3.33,7,7,0,0,1-2.89,2.33,9.82,9.82,0,0,1-4.12.84A9.72,9.72,0,0,1,173.53,12.15Zm7.65-.74a6.19,6.19,0,0,0,2.49-2,4.92,4.92,0,0,0,.9-2.88,4.92,4.92,0,0,0-.9-2.88,6.19,6.19,0,0,0-2.49-2,8.36,8.36,0,0,0-3.52-.73,8.49,8.49,0,0,0-3.54.73,6.13,6.13,0,0,0-2.49,2,4.86,4.86,0,0,0-.91,2.88,4.86,4.86,0,0,0,.91,2.88,6.13,6.13,0,0,0,2.49,2,8.49,8.49,0,0,0,3.54.73A8.36,8.36,0,0,0,181.18,11.41Z" transform="translate(-0.24 0)"/><path class="cls-1" d="M190.78.93V6.41h8.27v.84h-8.27v5.66h-1.13V.09H200V.93Z" transform="translate(-0.24 0)"/><path class="cls-1" d="M206.72.93h-5.59V.09h12.31V.93h-5.59v12h-1.13Z" transform="translate(-0.24 0)"/><path class="cls-1" d="M236.91.09l-5.25,12.82h-1.2l-4.81-11.5-4.83,11.5h-1.2L214.34.09h1.2l4.72,11.54L225.12.09h1.08L231,11.64,235.8.09Z" transform="translate(-0.24 0)"/><path class="cls-1" d="M249.3,9.3h-9l-2,3.61h-1.22L244.25.09h1.13l7.14,12.82H251.3Zm-.42-.79L244.8,1.12l-4.05,7.39Z" transform="translate(-0.24 0)"/><path class="cls-1" d="M266.11,12.91,262.4,8.62a11.78,11.78,0,0,1-1.5.1h-4.44v4.19h-1.13V.09h5.57a8,8,0,0,1,4.59,1.15,3.65,3.65,0,0,1,1.66,3.17A3.69,3.69,0,0,1,266.21,7a5.17,5.17,0,0,1-2.7,1.45l3.88,4.49Zm-5.21-5A6.61,6.61,0,0,0,264.69,7,2.94,2.94,0,0,0,266,4.41a2.94,2.94,0,0,0-1.31-2.57A6.69,6.69,0,0,0,260.9.93h-4.44v7Z" transform="translate(-0.24 0)"/><path class="cls-1" d="M282,12.07v.84H271.29V.09h10.38V.93h-9.25V6h8.27v.82h-8.27v5.26Z" transform="translate(-0.24 0)"/></g><g id="webapi"><g id="i"><polygon class="cls-2" points="287.66 71 287.66 63.36 295.62 63.36 295.62 32.08 287.76 32 287.76 24 306.76 24 306.76 63 314.76 63 314.76 71 287.66 71"/><path class="cls-2" d="M300.42,14.58A7.59,7.59,0,0,1,295,12.52a6.9,6.9,0,0,1-2.16-5.23A6.87,6.87,0,0,1,295,2a8.48,8.48,0,0,1,10.94,0A7,7,0,0,1,308,7.29a7,7,0,0,1-2.11,5.23A7.54,7.54,0,0,1,300.42,14.58Z" transform="translate(-0.24 0)"/></g><g id="p"><path class="cls-2" d="M231,88V80.65h7.49L239,32h-8V24h18.27l.23,6.33-3.28,1.59a27.9,27.9,0,0,1,8.43-5.77A24.66,24.66,0,0,1,264.83,24a23.48,23.48,0,0,1,11.4,2.71A19.19,19.19,0,0,1,284,34.63,25.59,25.59,0,0,1,286.82,47a25.47,25.47,0,0,1-3.1,12.95,21.4,21.4,0,0,1-8.36,8.26A23.74,23.74,0,0,1,263.77,71a25.19,25.19,0,0,1-6.72-.85,21.23,21.23,0,0,1-5.44-2.26,10.61,10.61,0,0,1-3.51-3.22l2-1v17h8.42V88Zm29.61-25.33a14.13,14.13,0,0,0,10.12-3.84c2.69-2.56,4-6.34,4-11.31q0-7-3.86-11a13.13,13.13,0,0,0-9.83-4,18.32,18.32,0,0,0-4.56.68,21.62,21.62,0,0,0-5.09,2.09,13.57,13.57,0,0,0-4.27,3.79l2.93-5.31V60.75L247.51,57a18.27,18.27,0,0,0,13.11,5.65Z" transform="translate(-0.24 0)"/></g><g id="a"><path class="cls-2" d="M200.82,71q-7.14,0-11.41-3.78a12,12,0,0,1-4.27-9.41,12.33,12.33,0,0,1,2.57-8.22,14.44,14.44,0,0,1,6.79-4.4,29.76,29.76,0,0,1,9.13-1.35,46,46,0,0,1,8,.67,65.1,65.1,0,0,1,7.26,1.69l-3.28.46V41.58c0-3.3-.9-5.75-2.69-7.32s-4.29-2.37-7.49-2.37a32,32,0,0,0-7.43,1,45,45,0,0,0-8.25,2.93l-3-6.76a38.5,38.5,0,0,1,10.12-3.83A45.54,45.54,0,0,1,206.9,24a26.58,26.58,0,0,1,10.94,2,15.12,15.12,0,0,1,6.85,5.8A16.47,16.47,0,0,1,227,40.68L227,63h7v8H218l-2.09-7.78h3.51a30.45,30.45,0,0,1-8.6,5.86A24.71,24.71,0,0,1,200.82,71Zm2.92-6.76a18.73,18.73,0,0,0,7.43-1.58,28.93,28.93,0,0,0,7.55-5l-3.16,4.17V49.47l2.57,2.14a36.72,36.72,0,0,0-5.85-1.46,39.43,39.43,0,0,0-6.78-.56,14.19,14.19,0,0,0-6.73,1.57q-3,1.59-3,6a6.75,6.75,0,0,0,2.1,5.07A8.11,8.11,0,0,0,203.74,64.24Z" transform="translate(-0.24 0)"/></g><g id="b"><path class="cls-2" d="M145.35,31.81l-2.81-.33A23.06,23.06,0,0,1,150.79,26,26.07,26.07,0,0,1,160.56,24a23.37,23.37,0,0,1,11.29,2.68,19,19,0,0,1,7.78,7.75,24.94,24.94,0,0,1,2.81,12.22,24.92,24.92,0,0,1-3.1,12.72,21.21,21.21,0,0,1-8.37,8.2,25.68,25.68,0,0,1-21.41,1,21.3,21.3,0,0,1-7.6-5.69l3.16,1.45-.12,5m11.58-36.82a17.77,17.77,0,0,0-7.25,1.67,20.49,20.49,0,0,0-6.79,5l2.81-4.79V61.15l-2.81-5A21.58,21.58,0,0,0,149,60.54a17.43,17.43,0,0,0,7.14,1.62,14.25,14.25,0,0,0,10.23-3.85q4-3.86,4-11t-3.86-11A13.48,13.48,0,0,0,156.58,32.48Z" transform="translate(-0.24 0)"/><path class="cls-2" d="M146,66v5l-19,0V63.36h7.13L134,9h-7V0h19V32" transform="translate(-0.24 0)"/><path class="cls-2" d="M145.35,31.91l-2.81-.34A23.06,23.06,0,0,1,150.79,26a25.72,25.72,0,0,1,9.77-2,23.16,23.16,0,0,1,11.29,2.71,19.23,19.23,0,0,1,7.78,7.85,25.53,25.53,0,0,1,2.81,12.38,25.44,25.44,0,0,1-3.1,12.87A21.29,21.29,0,0,1,171,68.12a25.34,25.34,0,0,1-21.41,1,21.27,21.27,0,0,1-7.6-5.76l3.16,1.47L145,69.87m11.58-37.28a17.49,17.49,0,0,0-7.25,1.69,20.45,20.45,0,0,0-6.79,5.09l2.81-4.86V61.62l-2.81-5.08A21.56,21.56,0,0,0,149,61a17.31,17.31,0,0,0,7.14,1.64,14.12,14.12,0,0,0,10.23-3.9q4-3.9,4-11.13t-3.86-11.13A13.43,13.43,0,0,0,156.58,32.59Z" transform="translate(-0.24 0)"/></g><g id="e"><path class="cls-2" d="M105,71a28.16,28.16,0,0,1-12.88-2.87A21.65,21.65,0,0,1,83.19,60,23.58,23.58,0,0,1,80,47.44a24,24,0,0,1,3.11-12.39,21.52,21.52,0,0,1,8.38-8.18A24.56,24.56,0,0,1,103.39,24a22.65,22.65,0,0,1,11.66,2.87,19.19,19.19,0,0,1,7.49,8.06A26.51,26.51,0,0,1,125.15,47v2.6H87.85l.11-6H114.6a13.46,13.46,0,0,0-1.44-6.42,9.86,9.86,0,0,0-4-4.12,12.13,12.13,0,0,0-5.89-1.41,11.85,11.85,0,0,0-6.49,1.81,12.22,12.22,0,0,0-4.44,5.07,18,18,0,0,0-1.61,8,18.74,18.74,0,0,0,1.83,8.57,13,13,0,0,0,5.16,5.52,15.08,15.08,0,0,0,7.66,1.92,20.67,20.67,0,0,0,8.66-1.81,26.88,26.88,0,0,0,7-4.5L124.48,63A26.57,26.57,0,0,1,105,71Z" transform="translate(-0.24 0)"/></g><g id="w"><path class="cls-2" d="M19.66,71l-14-39.28H.24V24H22.12v7.72H16.5l9.71,28.72,9.6-28.72H30.07V24H52.65v7.72H46.8L56.87,60.44l9-28.72H60.14V24H81.9v7.72H76.29L62.6,71H51.72L41.07,41,30.54,71Z" transform="translate(-0.24 0)"/></g></g></svg>